<svg xmlns="http://www.w3.org/2000/svg" width="142" height="48" viewBox="0 0 142 48" role="img" aria-label="API docs"><title>API docs</title><rect x="5.5" y="5.5" width="135" height="41" rx="10" fill="#252628" stroke="#252628" stroke-width="3"/><rect x="1.5" y="1.5" width="135" height="41" rx="10" fill="#BDE2C7" stroke="#252628" stroke-width="3"/><path fill="#252628" shape-rendering="crispEdges" d="M12 11h12v2h-12zM12 13h2v2h-2zM22 13h4v2h-4zM12 15h2v2h-2zM22 15h2v2h-2zM26 15h2v2h-2zM12 17h2v2h-2zM22 17h8v2h-8zM12 19h2v2h-2zM16 19h10v2h-10zM28 19h2v2h-2zM12 21h2v2h-2zM28 21h2v2h-2zM12 23h2v2h-2zM16 23h10v2h-10zM28 23h2v2h-2zM12 25h2v2h-2zM28 25h2v2h-2zM12 27h2v2h-2zM16 27h8v2h-8zM28 27h2v2h-2zM12 29h2v2h-2zM28 29h2v2h-2zM12 31h18v2h-18zM38 15h10v2h-10zM50 15h10v2h-10zM62 15h8v2h-8zM84 15h4v2h-4zM38 17h10v2h-10zM50 17h10v2h-10zM62 17h8v2h-8zM84 17h4v2h-4zM38 19h4v2h-4zM44 19h4v2h-4zM50 19h4v2h-4zM56 19h4v2h-4zM64 19h4v2h-4zM78 19h10v2h-10zM90 19h10v2h-10zM102 19h10v2h-10zM114 19h10v2h-10zM38 21h4v2h-4zM44 21h4v2h-4zM50 21h10v2h-10zM64 21h4v2h-4zM78 21h10v2h-10zM90 21h10v2h-10zM102 21h10v2h-10zM114 21h6v2h-6zM38 23h10v2h-10zM50 23h10v2h-10zM64 23h4v2h-4zM78 23h4v2h-4zM84 23h4v2h-4zM90 23h4v2h-4zM96 23h4v2h-4zM102 23h4v2h-4zM114 23h10v2h-10zM38 25h10v2h-10zM50 25h4v2h-4zM62 25h8v2h-8zM78 25h10v2h-10zM90 25h10v2h-10zM102 25h10v2h-10zM118 25h6v2h-6zM38 27h4v2h-4zM44 27h4v2h-4zM50 27h4v2h-4zM62 27h8v2h-8zM78 27h10v2h-10zM90 27h10v2h-10zM102 27h10v2h-10zM114 27h10v2h-10z"/></svg>
